<svg fill="none" height="200" viewBox="0 0 928 200" width="928" xmlns="http://www.w3.org/2000/svg" xmlns:xlink="http://www.w3.org/1999/xlink"><clipPath id="a"><path d="m0 0h928v200h-928z"/></clipPath><g clip-path="url(#a)"><path d="m0 0h928v200h-928z" fill="#fff"/><path d="m681.244 161.208h1.84v-12.46h4.2v-1.54h-10.24v1.54h4.2zm10.49.24c2.18 0 3.92-1.32 4.26-3.18h-1.6c-.32 1.06-1.2 1.84-2.66 1.84-2.02 0-2.86-1.36-2.86-3v-.34h7.22v-1.6c0-2.5-1.46-4.48-4.42-4.48-2.94 0-4.54 1.88-4.54 4.66v1.6c0 2.8 1.88 4.5 4.6 4.5zm-2.86-6.02v-.26c0-1.78.74-3.14 2.8-3.14 1.88 0 2.74 1.26 2.74 2.98v.42zm8.718 5.78h1.9l2.64-3.9 2.64 3.9h1.88l-3.62-5.22 3.48-5.06h-1.86l-2.52 3.72-2.54-3.72h-1.86l3.48 5.06zm14.755 0h1.42v-1.46h-1.04c-1.06 0-1.4-.4-1.4-1.36v-6h2.52v-1.46h-2.52v-2.92h-1.8v2.92h-1.68v1.46h1.68v6.04c0 1.76.84 2.78 2.82 2.78zm11.715.24c1.58 0 2.94-.74 3.4-1.44v1.2h1.72v-6.76c0-2.12-1.58-3.76-4.14-3.76-2.06 0-3.54 1.06-4.08 2.82h1.66c.38-.84 1.16-1.4 2.38-1.4 1.52 0 2.38 1 2.38 2.3v1.78c-.54-.56-1.6-1.18-3.12-1.18-2.46 0-4.1 1.18-4.1 3.22 0 1.9 1.5 3.22 3.9 3.22zm.4-1.16c-1.48 0-2.58-.76-2.58-2.06 0-1.32 1.06-2.06 2.66-2.06 1.46 0 2.84.82 2.84 2.02 0 1.22-1.4 2.1-2.92 2.1zm11.543 1.16c2.44 0 4.24-1.36 4.24-3.22 0-1.48-.9-2.26-2.48-2.64l-3.14-.76c-.7-.16-1.02-.56-1.02-1.22 0-1.04.94-1.6 2.28-1.6 1.46 0 2.28.78 2.28 1.94v.08h1.6v-.1c0-1.94-1.64-3.24-3.86-3.24-2.3 0-3.96 1.04-3.96 3.02 0 1.38.86 2.28 2.4 2.62l3.04.7c.78.18 1.2.64 1.2 1.32 0 1.2-1.08 1.78-2.56 1.78-1.58 0-2.7-.76-2.7-1.96v-.08h-1.62v.12c0 2.04 1.78 3.24 4.3 3.24zm13.662-.24h1.88l3.72-10.28h-1.78l-2.88 8.48-2.88-8.48h-1.76zm11.461.24c2.18 0 3.92-1.32 4.26-3.18h-1.6c-.32 1.06-1.2 1.84-2.66 1.84-2.02 0-2.86-1.36-2.86-3v-.34h7.22v-1.6c0-2.5-1.46-4.48-4.42-4.48-2.94 0-4.54 1.88-4.54 4.66v1.6c0 2.8 1.88 4.5 4.6 4.5zm-2.86-6.02v-.26c0-1.78.74-3.14 2.8-3.14 1.88 0 2.74 1.26 2.74 2.98v.42zm13.994 6.02c2.62 0 4.34-1.7 4.46-3.9h-1.62c-.18 1.3-1 2.48-2.82 2.48-1.98 0-2.9-1.28-2.9-3.08v-1.74c0-1.82.92-3.1 2.9-3.1 1.82 0 2.64 1.18 2.82 2.48h1.62c-.12-2.2-1.84-3.9-4.46-3.9-2.92 0-4.64 1.94-4.64 4.54v1.68c0 2.6 1.72 4.54 4.64 4.54zm10.632-.24h1.42v-1.46h-1.04c-1.06 0-1.4-.4-1.4-1.36v-6h2.52v-1.46h-2.52v-2.92h-1.8v2.92h-1.68v1.46h1.68v6.04c0 1.76.84 2.78 2.82 2.78zm7.962.24c2.94 0 4.64-2 4.64-4.56v-1.64c0-2.54-1.7-4.56-4.64-4.56-2.96 0-4.66 2.02-4.66 4.56v1.64c0 2.56 1.7 4.56 4.66 4.56zm0-1.42c-1.92 0-2.92-1.3-2.92-3.12v-1.68c0-1.8 1-3.1 2.92-3.1 1.9 0 2.9 1.3 2.9 3.1v1.68c0 1.82-1 3.12-2.9 3.12zm7.266 1.18h1.78v-4.98c0-2.46 1.18-3.66 3.08-3.66h.36v-1.7h-.26c-1.78 0-2.92.78-3.28 2.34v-2.28h-1.68z" fill="#000"/><path d="m627.646 74h-75v50h75z" fill="#f0f0f2" stroke="#fff" stroke-width="2"/><path d="m702.646 74h-75v50h75z" fill="#f0f0f2" stroke="#fff" stroke-width="2"/><path d="m777.646 74h-75v50h75z" fill="#f0f0f2" stroke="#fff" stroke-width="2"/><path d="m852.646 74h-75v50h75z" fill="#f0f0f2" stroke="#fff" stroke-width="2"/><path d="m927.646 74h-75v50h75z" fill="#f0f0f2" stroke="#fff" stroke-width="2"/><g fill="#000"><path d="m570.321 105.28c3.14 0 4.74-2 4.74-4.78v-5c0-2.78-1.6-4.78-4.74-4.78s-4.74 2-4.74 4.78v5c0 2.78 1.6 4.78 4.74 4.78zm0-1.48c-1.88 0-2.92-1.28-2.92-3.26v-5.08c0-1.98 1.04-3.26 2.92-3.26s2.92 1.28 2.92 3.26v5.08c0 1.98-1.04 3.26-2.92 3.26zm8.222 1.32c.66 0 1.14-.44 1.14-1.1s-.46-1.12-1.14-1.12-1.14.46-1.14 1.12.48 1.1 1.14 1.1zm8.223.16c3.14 0 4.74-2 4.74-4.78v-5c0-2.78-1.6-4.78-4.74-4.78s-4.74 2-4.74 4.78v5c0 2.78 1.6 4.78 4.74 4.78zm0-1.48c-1.88 0-2.92-1.28-2.92-3.26v-5.08c0-1.98 1.04-3.26 2.92-3.26s2.92 1.28 2.92 3.26v5.08c0 1.98-1.04 3.26-2.92 3.26zm11.602 1.48c3.14 0 4.74-2 4.74-4.78v-5c0-2.78-1.6-4.78-4.74-4.78s-4.74 2-4.74 4.78v5c0 2.78 1.6 4.78 4.74 4.78zm0-1.48c-1.88 0-2.92-1.28-2.92-3.26v-5.08c0-1.98 1.04-3.26 2.92-3.26s2.92 1.28 2.92 3.26v5.08c0 1.98-1.04 3.26-2.92 3.26zm11.601 1.48c3.14 0 4.74-2 4.74-4.78v-5c0-2.78-1.6-4.78-4.74-4.78s-4.74 2-4.74 4.78v5c0 2.78 1.6 4.78 4.74 4.78zm0-1.48c-1.88 0-2.92-1.28-2.92-3.26v-5.08c0-1.98 1.04-3.26 2.92-3.26s2.92 1.28 2.92 3.26v5.08c0 1.98-1.04 3.26-2.92 3.26z"/><path d="m645.321 105.28c3.14 0 4.74-2 4.74-4.78v-5c0-2.78-1.6-4.78-4.74-4.78s-4.74 2-4.74 4.78v5c0 2.78 1.6 4.78 4.74 4.78zm0-1.48c-1.88 0-2.92-1.28-2.92-3.26v-5.08c0-1.98 1.04-3.26 2.92-3.26s2.92 1.28 2.92 3.26v5.08c0 1.98-1.04 3.26-2.92 3.26zm8.222 1.32c.66 0 1.14-.44 1.14-1.1s-.46-1.12-1.14-1.12-1.14.46-1.14 1.12.48 1.1 1.14 1.1zm8.223.16c3.14 0 4.74-2 4.74-4.78v-5c0-2.78-1.6-4.78-4.74-4.78s-4.74 2-4.74 4.78v5c0 2.78 1.6 4.78 4.74 4.78zm0-1.48c-1.88 0-2.92-1.28-2.92-3.26v-5.08c0-1.98 1.04-3.26 2.92-3.26s2.92 1.28 2.92 3.26v5.08c0 1.98-1.04 3.26-2.92 3.26zm11.602 1.48c3.14 0 4.74-2 4.74-4.78v-5c0-2.78-1.6-4.78-4.74-4.78s-4.74 2-4.74 4.78v5c0 2.78 1.6 4.78 4.74 4.78zm0-1.48c-1.88 0-2.92-1.28-2.92-3.26v-5.08c0-1.98 1.04-3.26 2.92-3.26s2.92 1.28 2.92 3.26v5.08c0 1.98-1.04 3.26-2.92 3.26zm11.701 1.48c2.84 0 4.64-2.16 4.64-4.76 0-2.66-1.78-4.62-4.14-4.62-1.06 0-1.8.36-2.4 1.1v-.02l3.84-5.98h-1.94l-3.3 5.38c-.78 1.24-1.46 2.52-1.46 4.18 0 2.74 1.86 4.72 4.76 4.72zm-.02-1.48c-1.88 0-2.98-1.34-2.98-3.2 0-1.9 1.28-3.26 3.02-3.26 1.8 0 2.86 1.36 2.86 3.22s-1.12 3.24-2.9 3.24z"/><path d="m711.68 99.52h5.68v-1.6h-5.68zm12.762 5.76c3.14 0 4.74-2 4.74-4.78v-5c0-2.78-1.6-4.78-4.74-4.78s-4.74 2-4.74 4.78v5c0 2.78 1.6 4.78 4.74 4.78zm0-1.48c-1.88 0-2.92-1.28-2.92-3.26v-5.08c0-1.98 1.04-3.26 2.92-3.26s2.92 1.28 2.92 3.26v5.08c0 1.98-1.04 3.26-2.92 3.26zm8.222 1.32c.66 0 1.14-.44 1.14-1.1s-.46-1.12-1.14-1.12-1.14.46-1.14 1.12.48 1.1 1.14 1.1zm8.223.16c3.14 0 4.74-2 4.74-4.78v-5c0-2.78-1.6-4.78-4.74-4.78s-4.74 2-4.74 4.78v5c0 2.78 1.6 4.78 4.74 4.78zm0-1.48c-1.88 0-2.92-1.28-2.92-3.26v-5.08c0-1.98 1.04-3.26 2.92-3.26s2.92 1.28 2.92 3.26v5.08c0 1.98-1.04 3.26-2.92 3.26zm12.842-.28v-12.52h-1.5l-3.64 1.78v1.64l3.32-1.52v10.62h-3.56v1.48h9v-1.48zm10.462 1.76c2.74 0 4.64-1.7 4.64-4.24 0-2.42-1.7-4-4.28-4h-1.04l4.84-4.58v-1.46h-8.48v1.46h6.22l-4.68 4.56v1.42h2.66c1.94 0 2.98 1.06 2.98 2.66 0 1.58-.94 2.72-2.82 2.72-1.72 0-2.86-1.04-3-2.72h-1.68c.1 2.72 2.16 4.18 4.64 4.18z"/><path d="m810.81 102.12c.66 0 1.14-.44 1.14-1.1s-.46-1.12-1.14-1.12-1.14.46-1.14 1.12.48 1.1 1.14 1.1zm4.84 0c.66 0 1.14-.44 1.14-1.1s-.46-1.12-1.14-1.12-1.14.46-1.14 1.12.48 1.1 1.14 1.1zm4.84 0c.66 0 1.14-.44 1.14-1.1s-.46-1.12-1.14-1.12-1.14.46-1.14 1.12.48 1.1 1.14 1.1z"/><path d="m861.68 99.52h5.68v-1.6h-5.68zm12.762 5.76c3.14 0 4.74-2 4.74-4.78v-5c0-2.78-1.6-4.78-4.74-4.78s-4.74 2-4.74 4.78v5c0 2.78 1.6 4.78 4.74 4.78zm0-1.48c-1.88 0-2.92-1.28-2.92-3.26v-5.08c0-1.98 1.04-3.26 2.92-3.26s2.92 1.28 2.92 3.26v5.08c0 1.98-1.04 3.26-2.92 3.26zm8.222 1.32c.66 0 1.14-.44 1.14-1.1s-.46-1.12-1.14-1.12-1.14.46-1.14 1.12.48 1.1 1.14 1.1zm8.223.16c3.14 0 4.74-2 4.74-4.78v-5c0-2.78-1.6-4.78-4.74-4.78s-4.74 2-4.74 4.78v5c0 2.78 1.6 4.78 4.74 4.78zm0-1.48c-1.88 0-2.92-1.28-2.92-3.26v-5.08c0-1.98 1.04-3.26 2.92-3.26s2.92 1.28 2.92 3.26v5.08c0 1.98-1.04 3.26-2.92 3.26zm12.842-.28v-12.52h-1.5l-3.64 1.78v1.64l3.32-1.52v10.62h-3.56v1.48h9v-1.48zm10.462 1.76c2.74 0 4.64-1.7 4.64-4.24 0-2.42-1.7-4-4.28-4h-1.04l4.84-4.58v-1.46h-8.48v1.46h6.22l-4.68 4.56v1.42h2.66c1.94 0 2.98 1.06 2.98 2.66 0 1.58-.94 2.72-2.82 2.72-1.72 0-2.86-1.04-3-2.72h-1.68c.1 2.72 2.16 4.18 4.64 4.18z"/></g><path d="m482.222 100h19 41" stroke="#000" stroke-miterlimit="16" stroke-width="1.5"/><path d="m538.722 104v-8l14.222 4z" fill="#000"/><path d="m253 100h19 41" stroke="#000" stroke-miterlimit="16" stroke-width="1.5"/><path d="m309.5 104v-8l14.222 4z" fill="#000"/><path d="m322.722 4.91922c0-2.53725 2.332-4.433408 4.816-3.91592l152 31.6667c1.855.3864 3.184 2.0212 3.184 3.9159v126.8281c0 1.895-1.329 3.53-3.184 3.916l-152 31.667c-2.484.517-4.816-1.379-4.816-3.916z" fill="#f0f0f2" stroke="#fff" stroke-miterlimit="10" stroke-width="2"/><path d="m351.113 93h9.38v-1.54h-7.54v-4.78h6.94v-1.54h-6.94v-4.6h7.52v-1.54h-9.36zm12.027 0h1.78v-6.06c0-1.94 1.14-2.9 2.7-2.9 1.6 0 2.4 1.1 2.4 2.72v6.24h1.78v-6.06c0-1.94 1.14-2.9 2.7-2.9 1.6 0 2.38 1.1 2.38 2.72v6.24h1.8v-6.5c0-2.44-1.46-4.02-3.68-4.02-1.74 0-2.96.74-3.66 1.88-.6-1.16-1.72-1.88-3.2-1.88-1.72 0-2.82.76-3.3 1.88v-1.64h-1.7zm23.634.24c2.72 0 4.3-2.04 4.3-4.58v-1.6c0-2.62-1.64-4.58-4.28-4.58-1.54 0-2.7.7-3.32 1.68v-5.76h-1.78v14.6h1.7v-1.52c.44.92 1.72 1.76 3.38 1.76zm-.36-1.46c-1.88 0-2.94-1.42-2.94-3.28v-1.38c0-1.98 1.36-3.18 2.96-3.18 1.84 0 2.84 1.42 2.84 3.2v1.44c0 1.78-.86 3.2-2.86 3.2zm11.372 1.46c2.18 0 3.92-1.32 4.26-3.18h-1.6c-.32 1.06-1.2 1.84-2.66 1.84-2.02 0-2.86-1.36-2.86-3v-.34h7.22v-1.6c0-2.5-1.46-4.48-4.42-4.48-2.94 0-4.54 1.88-4.54 4.66v1.6c0 2.8 1.88 4.5 4.6 4.5zm-2.86-6.02v-.26c0-1.78.74-3.14 2.8-3.14 1.88 0 2.74 1.26 2.74 2.98v.42zm13.654 6.02c1.66 0 2.92-.86 3.38-1.76v1.52h1.7v-14.6h-1.78v5.76c-.62-.98-1.78-1.68-3.32-1.68-2.64 0-4.28 1.96-4.28 4.58v1.6c0 2.54 1.58 4.58 4.3 4.58zm.36-1.46c-2 0-2.86-1.42-2.86-3.2v-1.44c0-1.78 1-3.2 2.84-3.2 1.6 0 2.96 1.2 2.96 3.18v1.38c0 1.86-1.06 3.28-2.94 3.28zm11.632 1.46c1.66 0 2.92-.86 3.38-1.76v1.52h1.7v-14.6h-1.78v5.76c-.62-.98-1.78-1.68-3.32-1.68-2.64 0-4.28 1.96-4.28 4.58v1.6c0 2.54 1.58 4.58 4.3 4.58zm.36-1.46c-2 0-2.86-1.42-2.86-3.2v-1.44c0-1.78 1-3.2 2.84-3.2 1.6 0 2.96 1.2 2.96 3.18v1.38c0 1.86-1.06 3.28-2.94 3.28zm8.853-10.7c.64 0 1.1-.44 1.1-1.06s-.46-1.06-1.1-1.06c-.66 0-1.1.44-1.1 1.06s.44 1.06 1.1 1.06zm-.9 11.92h1.78v-10.28h-1.78zm5.016 0h1.78v-6.06c0-1.94 1.18-2.9 2.76-2.9 1.72 0 2.44 1.1 2.44 2.72v6.24h1.8v-6.5c0-2.48-1.46-4.02-3.74-4.02-1.72 0-2.86.76-3.34 1.88v-1.64h-1.7zm16.017 3.72c2.66 0 4.62-1.62 4.62-3.76v-10.24h-1.72v1.6c-.4-.86-1.54-1.84-3.4-1.84-2.72 0-4.22 1.9-4.22 4.22v1.66c0 2.28 1.52 4.2 4.2 4.2 1.64 0 3-.92 3.34-1.82v2.18c0 1.46-1.14 2.4-2.82 2.4-1.34 0-2.28-.4-2.8-1.32h-1.74c.52 1.74 2.4 2.72 4.54 2.72zm-.14-5.6c-1.84 0-2.8-1.1-2.8-2.88v-1.42c0-1.82.98-2.88 2.86-2.88 1.66 0 2.9 1.3 2.9 2.96v1.3c0 1.84-1.32 2.92-2.96 2.92zm-74.568 27.88h1.78v-6.06c0-1.94 1.14-2.9 2.7-2.9 1.6 0 2.4 1.1 2.4 2.72v6.24h1.78v-6.06c0-1.94 1.14-2.9 2.7-2.9 1.6 0 2.38 1.1 2.38 2.72v6.24h1.8v-6.5c0-2.44-1.46-4.02-3.68-4.02-1.74 0-2.96.74-3.66 1.88-.6-1.16-1.72-1.88-3.2-1.88-1.72 0-2.82.76-3.3 1.88v-1.64h-1.7zm22.715.24c2.94 0 4.64-2 4.64-4.56v-1.64c0-2.54-1.7-4.56-4.64-4.56-2.96 0-4.66 2.02-4.66 4.56v1.64c0 2.56 1.7 4.56 4.66 4.56zm0-1.42c-1.92 0-2.92-1.3-2.92-3.12v-1.68c0-1.8 1-3.1 2.92-3.1 1.9 0 2.9 1.3 2.9 3.1v1.68c0 1.82-1 3.12-2.9 3.12zm11.065 1.42c1.66 0 2.92-.86 3.38-1.76v1.52h1.7v-14.6h-1.78v5.76c-.62-.98-1.78-1.68-3.32-1.68-2.64 0-4.28 1.96-4.28 4.58v1.6c0 2.54 1.58 4.58 4.3 4.58zm.36-1.46c-2 0-2.86-1.42-2.86-3.2v-1.44c0-1.78 1-3.2 2.84-3.2 1.6 0 2.96 1.2 2.96 3.18v1.38c0 1.86-1.06 3.28-2.94 3.28zm11.933 1.46c2.18 0 3.92-1.32 4.26-3.18h-1.6c-.32 1.06-1.2 1.84-2.66 1.84-2.02 0-2.86-1.36-2.86-3v-.34h7.22v-1.6c0-2.5-1.46-4.48-4.42-4.48-2.94 0-4.54 1.88-4.54 4.66v1.6c0 2.8 1.88 4.5 4.6 4.5zm-2.86-6.02v-.26c0-1.78.74-3.14 2.8-3.14 1.88 0 2.74 1.26 2.74 2.98v.42zm9.933 5.78h1.8v-14.6h-1.8z" fill="#000"/><path d="m235 74h-210c-13.8071 0-25 11.1929-25 25 0 13.807 11.1929 25 25 25h210c13.807 0 25-11.193 25-25 0-13.8071-11.193-25-25-25z" fill="#00a67d" stroke="#fff" stroke-width="2"/><path d="m24.7746 106.24c2.78 0 4.66-1.74 4.74-4.12h-2.48c-.12 1.02-.76 1.92-2.2 1.92-1.54 0-2.26-1-2.26-2.4v-1.68c0-1.4.72-2.4 2.26-2.4 1.44 0 2.08.9 2.2 1.92h2.48c-.08-2.38-1.96-4.12-4.74-4.12-3.14 0-4.92 1.98-4.92 4.7v1.48c0 2.72 1.78 4.7 4.92 4.7zm10.4658 0c1.2 0 2.52-.5 3-1.2v.96h2.62v-6.64c0-2.42-1.78-4-4.38-4-2.24 0-3.86 1.08-4.46 3.1h2.52c.28-.56.86-.98 1.8-.98 1.12 0 1.8.72 1.8 1.68v1.42c-.48-.4-1.4-.88-2.64-.88-2.5 0-4.2 1.04-4.2 3.3 0 2.02 1.6 3.24 3.94 3.24zm.7-1.8c-1.14 0-2-.56-2-1.52s.8-1.48 2.08-1.48c1.22 0 2.12.54 2.12 1.46 0 .88-1 1.54-2.2 1.54zm7.4992 1.56h2.72v-6.16c0-1.4.78-2.12 2-2.12 1.32 0 1.9.86 1.9 2.06v6.22h2.72v-6.66c0-2.5-1.42-3.98-3.68-3.98-1.48 0-2.54.52-3.06 1.48v-1.24h-2.6zm13.4541-11.54c.92 0 1.58-.68 1.58-1.58s-.66-1.58-1.58-1.58-1.58.68-1.58 1.58.66 1.58 1.58 1.58zm-1.36 11.54h2.72v-10.4h-2.72zm5.5817 0h2.72v-6.16c0-1.4.78-2.12 2-2.12 1.32 0 1.9.86 1.9 2.06v6.22h2.72v-6.66c0-2.5-1.42-3.98-3.68-3.98-1.48 0-2.54.52-3.06 1.48v-1.24h-2.6zm16.2941.24c2.3 0 4.16-1.38 4.52-3.28h-2.38c-.26.72-.98 1.32-2.14 1.32-1.58 0-2.2-1.06-2.2-2.28v-.26h6.8v-1.82c0-2.5-1.56-4.56-4.64-4.56-3.12 0-4.8 2-4.8 4.82v1.42c0 2.92 1.9 4.64 4.84 4.64zm-2.2-6.42v-.1c0-1.4.6-2.44 2.16-2.44 1.46 0 2.14.98 2.14 2.28v.26zm17.8659 6.42c2.78 0 4.66-1.74 4.74-4.12h-2.48c-.12 1.02-.76 1.92-2.2 1.92-1.54 0-2.26-1-2.26-2.4v-1.68c0-1.4.72-2.4 2.26-2.4 1.44 0 2.08.9 2.2 1.92h2.48c-.08-2.38-1.96-4.12-4.74-4.12-3.14 0-4.92 1.98-4.92 4.7v1.48c0 2.72 1.78 4.7 4.92 4.7zm11.4056 0c3.12 0 4.9-2.04 4.9-4.7v-1.48c0-2.66-1.78-4.7-4.9-4.7s-4.8998 2.04-4.8998 4.7v1.48c0 2.66 1.7798 4.7 4.8998 4.7zm0-2.14c-1.54 0-2.26-1.02-2.26-2.38v-1.84c0-1.36.72-2.38 2.26-2.38s2.26 1.02 2.26 2.38v1.84c0 1.36-.72 2.38-2.26 2.38zm7.123 1.9h2.72v-6.16c0-1.4.72-2.12 1.94-2.12 1.32 0 1.86.86 1.86 2.06v6.22h2.72v-6.16c0-1.4.74-2.12 1.94-2.12 1.32 0 1.86.86 1.86 2.06v6.22h2.72v-6.66c0-2.5-1.54-3.98-3.72-3.98-1.52 0-2.68.5-3.44 1.48-.62-.94-1.66-1.48-3-1.48-1.48 0-2.48.52-3 1.48v-1.24h-2.6zm18.34 3.48h2.72v-4.6c.54.8 1.6 1.36 2.98 1.36 2.8 0 4.36-2.08 4.36-4.58v-1.72c0-2.46-1.52-4.58-4.38-4.58-1.5 0-2.56.68-3.08 1.48v-1.24h-2.6zm5-5.44c-1.24 0-2.28-.88-2.28-2.46v-1.52c0-1.46.92-2.5 2.3-2.5 1.58 0 2.32 1.12 2.32 2.5v1.48c0 1.46-.8 2.5-2.34 2.5zm10.785 2.2c1.2 0 2.52-.5 3-1.2v.96h2.62v-6.64c0-2.42-1.78-4-4.38-4-2.24 0-3.86 1.08-4.46 3.1h2.52c.28-.56.86-.98 1.8-.98 1.12 0 1.8.72 1.8 1.68v1.42c-.48-.4-1.4-.88-2.64-.88-2.5 0-4.2 1.04-4.2 3.3 0 2.02 1.6 3.24 3.94 3.24zm.7-1.8c-1.14 0-2-.56-2-1.52s.8-1.48 2.08-1.48c1.22 0 2.12.54 2.12 1.46 0 .88-1 1.54-2.2 1.54zm7.499 1.56h2.72v-6.16c0-1.4.78-2.12 2-2.12 1.32 0 1.9.86 1.9 2.06v6.22h2.72v-6.66c0-2.5-1.42-3.98-3.68-3.98-1.48 0-2.54.52-3.06 1.48v-1.24h-2.6zm13.454-11.54c.92 0 1.58-.68 1.58-1.58s-.66-1.58-1.58-1.58-1.58.68-1.58 1.58.66 1.58 1.58 1.58zm-1.36 11.54h2.72v-10.4h-2.72zm10.022.24c3.12 0 4.9-2.04 4.9-4.7v-1.48c0-2.66-1.78-4.7-4.9-4.7s-4.9 2.04-4.9 4.7v1.48c0 2.66 1.78 4.7 4.9 4.7zm0-2.14c-1.54 0-2.26-1.02-2.26-2.38v-1.84c0-1.36.72-2.38 2.26-2.38s2.26 1.02 2.26 2.38v1.84c0 1.36-.72 2.38-2.26 2.38zm7.122 1.9h2.72v-6.16c0-1.4.78-2.12 2-2.12 1.32 0 1.9.86 1.9 2.06v6.22h2.72v-6.66c0-2.5-1.42-3.98-3.68-3.98-1.48 0-2.54.52-3.06 1.48v-1.24h-2.6zm15.954.24c2.58 0 4.5-1.46 4.5-3.48 0-1.46-.78-2.28-2.32-2.66l-3.16-.78c-.54-.12-.8-.36-.8-.88 0-.74.6-1.14 1.7-1.14 1.2 0 1.7.56 1.7 1.36v.18h2.38v-.16c0-2.06-1.62-3.32-4.12-3.32-2.46 0-4.2 1.18-4.2 3.32 0 1.58.82 2.38 2.38 2.74l3.08.7c.6.14.86.44.86.94 0 .8-.84 1.26-1.98 1.26-1.28 0-2.1-.54-2.1-1.44v-.14h-2.4v.18c0 2.22 1.84 3.32 4.48 3.32zm15.02 0c2.58 0 4.5-1.46 4.5-3.48 0-1.46-.78-2.28-2.32-2.66l-3.16-.78c-.54-.12-.8-.36-.8-.88 0-.74.6-1.14 1.7-1.14 1.2 0 1.7.56 1.7 1.36v.18h2.38v-.16c0-2.06-1.62-3.32-4.12-3.32-2.46 0-4.2 1.18-4.2 3.32 0 1.58.82 2.38 2.38 2.74l3.08.7c.6.14.86.44.86.94 0 .8-.84 1.26-1.98 1.26-1.28 0-2.1-.54-2.1-1.44v-.14h-2.4v.18c0 2.22 1.84 3.32 4.48 3.32zm10.085 0c1.2 0 2.52-.5 3-1.2v.96h2.62v-6.64c0-2.42-1.78-4-4.38-4-2.24 0-3.86 1.08-4.46 3.1h2.52c.28-.56.86-.98 1.8-.98 1.12 0 1.8.72 1.8 1.68v1.42c-.48-.4-1.4-.88-2.64-.88-2.5 0-4.2 1.04-4.2 3.3 0 2.02 1.6 3.24 3.94 3.24zm.7-1.8c-1.14 0-2-.56-2-1.52s.8-1.48 2.08-1.48c1.22 0 2.12.54 2.12 1.46 0 .88-1 1.54-2.2 1.54zm8.666 5.04h2.68l1.14-3.5 3.4-10.38h-2.7l-2.12 7.46-2.24-7.46h-2.72l3.6 10.36z" fill="#fff"/><path d="m115.668 161.208h1.84v-12.46h4.2v-1.54h-10.24v1.54h4.2zm10.49.24c2.18 0 3.92-1.32 4.26-3.18h-1.6c-.32 1.06-1.2 1.84-2.66 1.84-2.02 0-2.86-1.36-2.86-3v-.34h7.22v-1.6c0-2.5-1.46-4.48-4.42-4.48-2.94 0-4.54 1.88-4.54 4.66v1.6c0 2.8 1.88 4.5 4.6 4.5zm-2.86-6.02v-.26c0-1.78.74-3.14 2.8-3.14 1.88 0 2.74 1.26 2.74 2.98v.42zm8.718 5.78h1.9l2.64-3.9 2.64 3.9h1.88l-3.62-5.22 3.48-5.06h-1.86l-2.52 3.72-2.54-3.72h-1.86l3.48 5.06zm14.756 0h1.42v-1.46h-1.04c-1.06 0-1.4-.4-1.4-1.36v-6h2.52v-1.46h-2.52v-2.92h-1.8v2.92h-1.68v1.46h1.68v6.04c0 1.76.84 2.78 2.82 2.78z" fill="#000"/></g></svg>